<?xml version="1.0" encoding="utf-8"?>
<!-- Generator: Adobe Illustrator 27.1.1, SVG Export Plug-In . SVG Version: 6.00 Build 0)  -->
<svg version="1.1" id="Camada_1" xmlns="http://www.w3.org/2000/svg" xmlns:xlink="http://www.w3.org/1999/xlink" x="0px" y="0px"
	 viewBox="0 0 162 38" style="enable-background:new 0 0 162 38;" xml:space="preserve">
<style type="text/css">
	.st0{fill:#FFFFFF;}
</style>
<path class="st0" d="M49.3,12.8c-1.1-5.4-3.4-8.2-6.7-8.2c-2.5,0-4.1,1.8-4.1,4.2c0,3.4,3.2,4.5,5.9,5.5c4.3,1.5,7.8,3.4,7.8,8.4
	c0,4.8-3.4,8.6-8.3,8.6c-3.1,0-5.7-1.8-6.8-2.7l-0.9,2h-1.5V20.6h1.6c0.6,2.5,1.3,4.5,2.2,5.8c1.4,2.1,3.1,3.2,5.3,3.2
	c3,0,4.7-2,4.7-4.9c0-3.8-3-4.9-6.1-5.9c-4.2-1.4-7.5-3.2-7.5-8.1c0-4.4,3-7.7,7.5-7.7c2.6,0,4.5,1.1,6.1,2.3l0.7-1.7h1.5v9.3H49.3z
	 M61.3,30.9l-5.7-14.8c-0.9-2.3-1.2-2.6-2.3-2.6h-0.7v-1.6h9.1v1.6h-1.4c-0.7,0-1,0.3-1,0.8c0,0.3,0.1,0.6,0.2,0.9l3.9,9.9l3.3-9.1
	c0.2-0.5,0.3-0.9,0.3-1.4c0-0.7-0.4-1.1-1.2-1.1h-1.4v-1.6h7.1v1.6h-0.7c-0.8,0-1.1,0.5-1.7,1.9l-6.3,16.9C61.3,36.3,60,38,57.2,38
	c-2.2,0-4.1-1.4-4.1-3.7c0-1.5,1-2.6,2.5-2.6c1.3,0,2.4,0.9,2.4,2.2c0,1-0.5,1.7-1.4,2.2c0.2,0.1,0.5,0.1,0.7,0.1
	c1.6,0,2.4-1.1,3.5-4.2L61.3,30.9z M83,18.1c-0.8-3.5-2.4-5.2-4.8-5.2c-1.6,0-2.7,0.9-2.7,2.6c0,2,2.4,2.6,3.9,3.1
	c3.3,1.1,6.2,2.5,6.2,6.3c0,3.8-2.8,6.1-6.5,6.1c-1.9,0-3.8-0.7-5.3-1.9l-0.5,1.5h-1.4v-7.2h1.4c0.9,2.8,2.3,6,5.8,6
	c1.8,0,3-1.3,3-3.1c0-2.4-2.4-3.2-4.3-3.8c-3-1-5.6-2.4-5.6-5.9c0-3.3,2.6-5.2,5.8-5.2c1.7,0,3.4,0.6,4.8,1.6l0.4-1.2h1.4v6.3
	L83,18.1z M99.3,26.1c0,3.2-1.9,5.1-5.1,5.1c-3.2,0-5.1-1.9-5.1-5.1V13.7h-2.9v-1.6c1.8-0.4,3.1-1.1,3.8-2c0.8-1,1.3-2.9,1.6-5.2
	h1.5v7h5.5v1.9h-5.5v12.5c0,2.1,0.9,2.8,1.8,2.8c1.4,0,2.3-1,2.3-3.4v-1.9h1.9L99.3,26.1z M105.3,21.4c0.1,3.1,0.3,8,4.3,8
	c2.7,0,4-2.2,5-4.3l1.6,0.8c-1.5,3.1-3.4,5.4-7.2,5.4c-5.8,0-8.1-4.9-8.1-10c0-4.9,2.4-10,7.8-10c5.8,0,7.6,5.6,7.7,10.1H105.3z
	 M111.9,19.6c-0.1-4.5-1.2-6.7-3.2-6.7c-2.1,0-3.3,2.3-3.4,6.7H111.9z M143.4,16.9v10.3c0,1.4,0.6,2,2,2h0.5v1.5h-6.6V17.3
	c0-2.6-0.8-3.7-2.5-3.7c-2.1,0-3.1,2.4-3.1,5.8v7.8c0,1.4,0.6,2,2,2h0.7v1.5h-6.7V17.3c0-2.6-0.8-3.7-2.5-3.7
	c-2.2,0-3.1,2.4-3.1,5.8v7.8c0,1.4,0.6,2,2,2h0.7v1.5h-9.4v-1.5h0.7c1.4,0,2-0.6,2-2v-12c0-1.4-0.6-2-2-2h-0.5v-1.5h6.3v2.1
	c1-1.5,2.7-2.3,4.5-2.3c2.4,0,3.9,1.1,4.9,2.9c0.9-1.8,2.8-2.9,4.8-2.9C141.4,11.5,143.4,13.5,143.4,16.9z M158.4,18.1
	c-0.8-3.5-2.4-5.2-4.8-5.2c-1.6,0-2.7,0.9-2.7,2.6c0,2,2.4,2.6,3.9,3.1c3.3,1.1,6.2,2.5,6.2,6.3c0,3.8-2.8,6.1-6.5,6.1
	c-1.9,0-3.8-0.7-5.3-1.9l-0.5,1.5h-1.4v-7.2h1.4c0.9,2.8,2.3,6,5.8,6c1.8,0,3-1.3,3-3.1c0-2.4-2.4-3.2-4.3-3.8c-3-1-5.6-2.4-5.6-5.9
	c0-3.3,2.6-5.2,5.8-5.2c1.7,0,3.4,0.6,4.8,1.6l0.4-1.2h1.4v6.3L158.4,18.1z M6.4,21.5H1V16h5.4V21.5z M1,3.5v9.2h1.6v-0.3
	c0-4.4,2.4-7.1,7.1-7.1H10V25c0,2.7-1.1,3.8-3.8,3.8H5.4v1.9h14.1v-1.9h-0.8c-2.7,0-3.8-1.1-3.8-3.8V5.4h0.3c4.6,0,7.1,2.7,7.1,7.1
	v0.3h1.6V3.5H1z M18.4,21.5h5.4V16h-5.4V21.5z"/>
</svg>
